<svg xmlns="http://www.w3.org/2000/svg" viewBox="0 0 512 512">
  <!-- Dark background -->
  <rect width="512" height="512" rx="96" fill="#0f0a1f"/>
  
  <!-- Clean rocket_launch icon -->
  <g transform="translate(256, 256)">
    <!-- Rocket body - pointing up-right diagonally -->
    <path d="M-30 30 
             C-60 0 -60 -60 0 -120
             C30 -150 90 -170 130 -130
             C170 -90 150 -30 120 0
             C60 60 0 60 -30 30 Z" 
          fill="#7c3aed" stroke="#7c3aed" stroke-width="4"/>
    
    <!-- Window/porthole -->
    <circle cx="40" cy="-40" r="28" fill="#0f0a1f"/>
    
    <!-- Left exhaust/flame wing -->
    <path d="M-50 60 
             Q-100 60 -120 100
             Q-130 120 -100 110
             Q-60 90 -30 50 Z" 
          fill="#7c3aed"/>
    
    <!-- Bottom exhaust/flame wing -->
    <path d="M60 -50 
             Q60 -100 100 -120
             Q120 -130 110 -100
             Q90 -60 50 -30 Z" 
          fill="#7c3aed"/>
    
    <!-- Flame spark at bottom-left corner -->
    <circle cx="-85" cy="85" r="18" fill="#7c3aed"/>
  </g>
</svg>
